<?xml version="1.0" encoding="UTF-8"?>
<!DOCTYPE svg PUBLIC "-//W3C//DTD SVG 1.1//EN" "http://www.w3.org/Graphics/SVG/1.1/DTD/svg11.dtd">
<!-- Creator: CorelDRAW -->
<svg xmlns="http://www.w3.org/2000/svg" xml:space="preserve" width="2048px" height="2048px" style="shape-rendering:geometricPrecision; text-rendering:geometricPrecision; image-rendering:optimizeQuality; fill-rule:evenodd; clip-rule:evenodd"
viewBox="0 0 2048 2048"
 xmlns:xlink="http://www.w3.org/1999/xlink">
 <defs>
  <style type="text/css">
   <![CDATA[
    .fil3 {fill:none}
    .fil2 {fill:none;fill-rule:nonzero}
    .fil1 {fill:#424242}
    .fil0 {fill:#424242;fill-rule:nonzero}
   ]]>
  </style>
 </defs>
 <g id="Layer_x0020_1">
  <metadata id="CorelCorpID_0Corel-Layer"/>
  <g id="_325603432">
   <path id="_325604608" class="fil0" d="M428 1433.75c47.4922,0 90.4938,19.2532 121.619,50.3811 31.128,31.1256 50.3811,74.1272 50.3811,121.619 0,47.4922 -19.2532,90.4926 -50.3811,121.621 -31.1256,31.1256 -74.1272,50.38 -121.619,50.38 -47.4922,0 -90.4926,-19.2543 -121.621,-50.38 -31.1256,-31.128 -50.38,-74.1284 -50.38,-121.621 0,-47.4922 19.2543,-90.4938 50.38,-121.619 31.128,-31.128 74.1284,-50.3811 121.621,-50.3811z"/>
   <path id="_325604008" class="fil0" d="M1482.5 1336.19c37.1362,0 70.7634,15.0579 95.1048,39.3969 24.3414,24.3414 39.3969,57.9685 39.3969,95.1048 0,37.1362 -15.0555,70.7634 -39.3969,95.1048 -24.3414,24.3414 -57.9685,39.3969 -95.1048,39.3969 -37.1362,0 -70.7634,-15.0555 -95.1048,-39.3969 -24.339,-24.3414 -39.3969,-57.9685 -39.3969,-95.1048 0,-37.1362 15.0579,-70.7634 39.3969,-95.1048 24.3414,-24.339 57.9685,-39.3969 95.1048,-39.3969z"/>
   <path id="_325603912" class="fil0" d="M929.215 806.195c59.9186,0 114.169,24.2894 153.439,63.5599 39.2705,39.2705 63.5599,93.5209 63.5599,153.439 0,59.9186 -24.2894,114.169 -63.5599,153.439 -39.2705,39.2705 -93.5209,63.5599 -153.439,63.5599 -59.9186,0 -114.169,-24.2894 -153.439,-63.5599 -39.2705,-39.2705 -63.5599,-93.5209 -63.5599,-153.439 0,-59.9186 24.2894,-114.169 63.5599,-153.439 39.2705,-39.2705 93.5209,-63.5599 153.439,-63.5599z"/>
   <path id="_325603624" class="fil0" d="M428 270.252c47.4922,0 90.4938,19.2543 121.619,50.38 31.128,31.128 50.3811,74.1284 50.3811,121.621 0,47.4922 -19.2532,90.4938 -50.3811,121.619 -31.1256,31.128 -74.1272,50.3811 -121.619,50.3811 -47.4922,0 -90.4926,-19.2532 -121.621,-50.3811 -31.1256,-31.1256 -50.38,-74.1272 -50.38,-121.619 0,-47.4922 19.2543,-90.4926 50.38,-121.621 31.128,-31.1256 74.1284,-50.38 121.621,-50.38z"/>
   <path id="_325603168" class="fil1" d="M499.63 1485.74l289.588 -340.224c17.041,-20.0209 47.3953,-22.4776 67.4245,-5.44252 20.0315,17.0374 22.4894,47.4071 5.44252,67.4339l-289.588 340.224c-17.041,20.0209 -47.3953,22.4776 -67.4245,5.44252 -20.0315,-17.0374 -22.4894,-47.4071 -5.44252,-67.4339z"/>
   <path id="_325603576" class="fil1" d="M773.261 910.355l-273.858 -350.945c-16.2532,-20.8288 -12.5587,-50.9386 8.26536,-67.2036 20.8252,-16.2662 50.9528,-12.5681 67.2119,8.26654l273.858 350.945c16.2532,20.8288 12.5587,50.9386 -8.26536,67.2036 -20.8252,16.2662 -50.9528,12.5681 -67.2119,-8.26654z"/>
   <path id="_325603528" class="fil0" d="M1620 270.252c47.4922,0 90.4926,19.2543 121.621,50.38 31.1256,31.128 50.38,74.1284 50.38,121.621 0,47.4922 -19.2543,90.4938 -50.38,121.619 -31.128,31.128 -74.1284,50.3811 -121.621,50.3811 -47.4922,0 -90.4938,-19.2532 -121.619,-50.3811 -31.128,-31.1256 -50.3811,-74.1272 -50.3811,-121.619 0,-47.4922 19.2532,-90.4926 50.3811,-121.621 31.1256,-31.1256 74.1272,-50.38 121.619,-50.38z"/>
   <line id="_325603816" class="fil2" x1="1518.86" y1="523.448" x2="1058.34" y2= "886.883" />
   <path id="_325603744" class="fil1" d="M1548.52 561.009l-460.523 363.435c-20.7307,16.3595 -50.8441,12.8327 -67.2166,-7.89213 -16.3748,-20.7272 -12.8457,-50.8619 7.89213,-67.2284l460.523 -363.435c20.7307,-16.3595 50.8441,-12.8327 67.2166,7.89213 16.3748,20.7272 12.8457,50.8619 -7.89213,67.2284z"/>
   <path id="_325603456" class="fil1" d="M1365.48 1453.86l-325.752 -274.839c-20.1496,-16.9996 -22.6677,-47.4461 -5.64685,-67.5638 17.0173,-20.1118 47.4048,-22.6252 67.5319,-5.64331l325.752 274.839c20.1496,16.9996 22.6677,47.4461 5.64685,67.5638 -17.0173,20.1118 -47.4048,22.6252 -67.5319,5.64331z"/>
  </g>
 </g>
 <rect class="fil3" width="2048" height="2048"/>
</svg>
